<svg xmlns="http://www.w3.org/2000/svg" viewBox="0 0 32 32" id="artstation"><path d="M28.63 20.66 20.87 6.49A2.94 2.94 0 0 0 18.32 5h-4.51a1 1 0 0 0-.87.49 1 1 0 0 0 0 1l11.74 21a1 1 0 0 0 .87.51 1 1 0 0 0 .88-.51l2.21-4a3 3 0 0 0-.01-2.83zm-1.75 1.89L25.54 25 15.51 7h2.81a.93.93 0 0 1 .8.46l7.76 14.17a.94.94 0 0 1 0 .92zM21.5 26H8a.93.93 0 0 1-.79-.44L5.74 23h12.92a1 1 0 0 0 0-2H4a1 1 0 0 0-.86 1.51l2.37 4.07A3 3 0 0 0 8 28h13.5a1 1 0 0 0 0-2zM6 19.67h10.9a1 1 0 0 0 .87-.49 1 1 0 0 0 0-1l-5.38-9.47a1 1 0 0 0-.86-.5 1 1 0 0 0-.86.5l-5.49 9.46a1 1 0 0 0 0 1 1 1 0 0 0 .82.5zm5.48-8.45 3.67 6.45H7.78z"></path></svg>